<svg width="40" height="41" viewBox="0 0 40 41" fill="none" xmlns="http://www.w3.org/2000/svg">
<path d="M20 0.873291C31.046 0.873291 40 9.82728 40 20.8733C40 31.9193 31.046 40.8733 20 40.8733C16.4655 40.8794 12.9932 39.944 9.94002 38.1633L0.0080309 40.8733L2.71203 30.9373C0.929947 27.8831 -0.00616325 24.4093 3.05373e-05 20.8733C3.05373e-05 9.82728 8.95403 0.873291 20 0.873291ZM13.184 11.4733L12.784 11.4893C12.5254 11.5071 12.2727 11.575 12.04 11.6893C11.8232 11.8123 11.6251 11.9659 11.452 12.1453C11.212 12.3713 11.076 12.5673 10.93 12.7573C10.1903 13.7191 9.79197 14.8999 9.79802 16.1133C9.80202 17.0933 10.058 18.0473 10.458 18.9393C11.276 20.7433 12.622 22.6533 14.398 24.4233C14.826 24.8493 15.246 25.2773 15.698 25.6753C17.9049 27.6181 20.5346 29.0192 23.378 29.7673L24.514 29.9413C24.884 29.9613 25.254 29.9333 25.626 29.9153C26.2084 29.8846 26.777 29.7269 27.292 29.4533C27.5537 29.318 27.8093 29.1711 28.058 29.0133C28.058 29.0133 28.1427 28.9559 28.308 28.8333C28.578 28.6333 28.744 28.4913 28.968 28.2573C29.136 28.0839 29.276 27.8826 29.388 27.6533C29.544 27.3273 29.7 26.7053 29.764 26.1873C29.812 25.7913 29.798 25.5753 29.792 25.4413C29.784 25.2273 29.606 25.0053 29.412 24.9113L28.248 24.3893C28.248 24.3893 26.508 23.6313 25.444 23.1473C25.3326 23.0988 25.2134 23.071 25.092 23.0653C24.9552 23.051 24.8168 23.0662 24.6864 23.1101C24.556 23.1539 24.4365 23.2252 24.336 23.3193C24.326 23.3153 24.192 23.4293 22.746 25.1813C22.663 25.2928 22.5487 25.3771 22.4176 25.4234C22.2865 25.4697 22.1446 25.4759 22.01 25.4413C21.8797 25.4065 21.752 25.3624 21.628 25.3093C21.38 25.2053 21.294 25.1653 21.124 25.0933C19.9758 24.5931 18.9129 23.9162 17.974 23.0873C17.722 22.8673 17.488 22.6273 17.248 22.3953C16.4612 21.6417 15.7755 20.7892 15.208 19.8593L15.09 19.6693C15.0065 19.5409 14.9381 19.4033 14.886 19.2593C14.81 18.9653 15.008 18.7293 15.008 18.7293C15.008 18.7293 15.494 18.1973 15.72 17.9093C15.94 17.6293 16.126 17.3573 16.246 17.1633C16.482 16.7833 16.556 16.3933 16.432 16.0913C15.872 14.7233 15.2934 13.3626 14.696 12.0093C14.578 11.7413 14.228 11.5493 13.91 11.5113C13.802 11.4979 13.694 11.4873 13.586 11.4793C13.3175 11.4639 13.0482 11.4666 12.78 11.4873L13.184 11.4733Z" fill="white"/>
</svg>
