<svg width="40" height="40" viewBox="0 0 40 40" fill="none" xmlns="http://www.w3.org/2000/svg">
<path d="M20.6298 0.000891484H20.4255C19.5314 0.000891484 18.6461 0.16957 17.82 0.497295C16.994 0.825021 16.2434 1.30538 15.6112 1.91093C14.3343 3.13391 13.617 4.79263 13.617 6.52218C13.617 8.25174 14.3343 9.91046 15.6112 11.1334C16.2434 11.739 16.994 12.2193 17.82 12.5471C18.6461 12.8748 19.5314 13.0435 20.4255 13.0435C22.4681 13.0435 23.6255 12.3913 24.851 11.4132C21.1064 12.3913 17.7021 9.78283 17.7021 6.52218C17.7021 3.26154 21.1064 0.653021 24.851 1.63121C24.2976 1.10213 23.6386 0.685125 22.9134 0.405038C22.1882 0.124951 21.4116 -0.0124927 20.6298 0.000891484ZM23.6936 2.73983L22.6723 5.02229L20.1532 5.21793L22.1276 6.84825L21.5149 9.1307L23.6936 7.82644L25.8723 9.1307L25.1915 6.84825L27.234 5.21793L24.7149 5.02229L23.6936 2.73983Z" fill="#31502C"/>
<path d="M34.8328 13.0435H36.6566V17.2174H40V19.3043H36.6566V26.9565H34.8328V19.3043H31.4894V17.2174H34.8328V13.0435Z" fill="#31502C"/>
<path d="M6.12766 13.0435V13.7391C4.94979 13.8782 3.87404 14.3652 2.99574 15.0887L2.4783 14.56L1.51149 15.5478L2.04255 16.0695C1.29643 16.9933 0.824004 18.1156 0.680851 19.3043H0V20.6956H0.680851C0.82383 21.8643 1.29362 22.9635 2.04255 23.8678L1.51149 24.3965L2.4783 25.3843L2.98894 24.8695C3.8904 25.6188 4.97629 26.1001 6.12766 26.2608V26.9565H7.48936V26.2608C8.63863 26.1 9.72228 25.6186 10.6213 24.8695L11.1387 25.3843L12.1055 24.3965L11.5745 23.8748C12.3234 22.9704 12.7932 21.8643 12.9362 20.6956H13.617V19.3043H12.9362C12.7932 18.1176 12.3207 16.9975 11.5745 16.0765L12.1055 15.5478L11.1387 14.56L10.6281 15.0887C9.72766 14.3449 8.63939 13.8769 7.48936 13.7391V13.0435H6.12766ZM6.12766 15.1304V17.2174L5.44681 17.5652L3.95574 16.0695C4.57532 15.5965 5.31745 15.2487 6.12766 15.1304ZM7.48936 15.1304C8.27915 15.2556 9.02809 15.5756 9.66809 16.0695L8.17021 17.5652L7.48936 17.2174V15.1304ZM2.99574 17.0504L4.42553 18.6087L4.08511 19.3043H2.04255C2.15149 18.4974 2.51915 17.7043 2.98894 17.0435L2.99574 17.0504ZM10.6213 17.0504C11.1183 17.7113 11.4451 18.4835 11.5745 19.3043H9.53192L9.19149 18.6087L10.6281 17.0504H10.6213ZM6.80851 18.6087C7.57106 18.6087 8.17021 19.2208 8.17021 20C8.17021 20.7791 7.57106 21.3913 6.80851 21.3913C6.04596 21.3913 5.44681 20.7791 5.44681 20C5.44681 19.2208 6.04596 18.6087 6.80851 18.6087ZM2.04255 20.6956H4.08511L4.47319 21.3913L2.98894 22.8869C2.49872 22.2539 2.17192 21.5026 2.04255 20.6956ZM9.53192 20.6956H11.5745C11.4436 21.4976 11.1182 22.2534 10.6281 22.8939L9.19149 21.3913L9.53192 20.6956ZM5.44681 22.4348L6.12766 22.7826V24.8695C5.33095 24.7309 4.58148 24.3887 3.94894 23.8748L5.44681 22.4348ZM8.17021 22.4348L9.66128 23.8748C9.0417 24.3478 8.29957 24.7513 7.48936 24.8695V22.7826L8.17021 22.4348Z" fill="#31502C"/>
<path d="M24.0427 27.8304C25.0054 28.3983 25.8063 29.2133 26.366 30.1947C26.9257 31.1761 27.2248 32.2898 27.2338 33.4256C27.2428 34.5614 26.9613 35.6799 26.4172 36.6704C25.873 37.6609 25.0852 38.489 24.1315 39.0728C23.1779 39.6565 22.0916 39.9757 20.9801 39.9987C19.8687 40.0217 18.7706 39.7477 17.7946 39.2038C16.8187 38.6599 15.9987 37.8651 15.4157 36.8979C14.8328 35.9307 14.5073 34.8248 14.4713 33.6895L14.4681 33.4782L14.4713 33.2669C14.507 32.1406 14.8278 31.043 15.4023 30.081C15.9769 29.1191 16.7855 28.3257 17.7495 27.7781C18.7135 27.2306 19.7999 26.9476 20.9028 26.9568C22.0057 26.9659 23.0875 27.2669 24.0427 27.8304ZM18.2979 28.96C17.3245 29.5342 16.5637 30.4207 16.1336 31.4817C15.7034 32.5428 15.628 33.7192 15.9189 34.8286C16.2098 35.9379 16.8509 36.9182 17.7427 37.6174C18.6344 38.3166 19.7271 38.6955 20.8511 38.6956L20.9788 38.6923C21.633 38.6589 22.2497 38.3698 22.7011 37.8848C23.1526 37.3999 23.4044 36.7562 23.4044 36.0869C23.4044 35.4176 23.1526 34.7739 22.7011 34.289C22.2497 33.804 21.633 33.5149 20.9788 33.4815L20.8511 33.4782C20.185 33.4782 19.5453 33.2123 19.0684 32.7371C18.5916 32.2619 18.3153 31.6151 18.2987 30.9348C18.282 30.2544 18.5262 29.5943 18.9793 29.0954C19.4323 28.5964 20.0582 28.2981 20.7235 28.2641L20.8511 28.2608C19.9548 28.2609 19.0742 28.502 18.2979 28.96ZM20.8511 29.8913C20.5972 29.8913 20.3537 29.9943 20.1741 30.1778C19.9946 30.3612 19.8937 30.6101 19.8937 30.8695C19.8937 31.129 19.9946 31.3778 20.1741 31.5613C20.3537 31.7447 20.5972 31.8478 20.8511 31.8478C21.1051 31.8478 21.3486 31.7447 21.5282 31.5613C21.7077 31.3778 21.8086 31.129 21.8086 30.8695C21.8086 30.6101 21.7077 30.3612 21.5282 30.1778C21.3486 29.9943 21.1051 29.8913 20.8511 29.8913Z" fill="#31502C"/>
<path d="M20.8512 35.1086C21.1051 35.1086 21.3487 35.2117 21.5282 35.3952C21.7078 35.5786 21.8087 35.8275 21.8087 36.0869C21.8087 36.3464 21.7078 36.5952 21.5282 36.7786C21.3487 36.9621 21.1051 37.0652 20.8512 37.0652C20.5973 37.0652 20.3537 36.9621 20.1742 36.7786C19.9946 36.5952 19.8937 36.3464 19.8937 36.0869C19.8937 35.8275 19.9946 35.5786 20.1742 35.3952C20.3537 35.2117 20.5973 35.1086 20.8512 35.1086Z" fill="#31502C"/>
</svg>
