<svg width="66" height="66" viewBox="0 0 66 66" fill="none" xmlns="http://www.w3.org/2000/svg">
<path d="M41.9401 18.0512C41.9401 18.0512 43.4401 19.5509 44.9401 22.5503C44.9401 22.5503 49.7071 15.0518 53.94 13.5521M26.9852 3.06929C19.4882 2.75435 13.6983 3.61518 13.6983 3.61518C10.0413 3.87912 3.03333 5.9247 3.03333 17.8983C3.03333 29.7638 2.95833 44.3949 3.03333 50.2287C3.03333 53.7919 5.24132 62.1062 12.8793 62.5502C22.1642 63.09 38.8891 63.207 46.5631 62.5502C48.6151 62.4332 55.455 60.8225 56.319 53.384C57.216 45.6756 57.039 40.3217 57.039 39.0469" stroke="#31502C" stroke-width="5" stroke-linecap="round" stroke-linejoin="round"/>
<path d="M17.9402 36.0475H29.9401M17.9402 48.045H41.9401M62.9999 18.0511C62.9999 26.3325 56.28 33.0481 47.985 33.0481C46.0139 33.0501 44.0618 32.6636 42.2402 31.9108C40.4186 31.158 38.7632 30.0537 37.3688 28.6609C35.9743 27.2681 34.8681 25.6142 34.1133 23.7937C33.3586 21.9732 32.9701 20.0218 32.9701 18.0511C32.9701 9.76684 39.6931 3.05421 47.985 3.05421C49.9561 3.05224 51.9082 3.43869 53.7298 4.19147C55.5515 4.94426 57.2068 6.04861 58.6013 7.4414C59.9957 8.83419 61.102 10.4881 61.8567 12.3086C62.6115 14.1291 62.9999 16.0805 62.9999 18.0511Z" stroke="#31502C" stroke-width="5" stroke-linecap="round" stroke-linejoin="round"/>
</svg>
