<svg width="44" height="44" viewBox="0 0 44 44" fill="none" xmlns="http://www.w3.org/2000/svg">
<path d="M27.9601 12.0342C27.9601 12.0342 28.9601 13.034 29.9601 15.0335C29.9601 15.0335 33.138 10.0346 35.96 9.03477M17.9901 2.04619C12.9922 1.83623 9.13218 2.41012 9.13218 2.41012C6.6942 2.58608 2.02222 3.9498 2.02222 11.9322C2.02222 19.8426 1.97222 29.5966 2.02222 33.4858C2.02222 35.8613 3.49421 41.4042 8.58619 41.7001C14.7762 42.06 25.9261 42.138 31.0421 41.7001C32.4101 41.6221 36.97 40.5483 37.546 35.5893C38.144 30.4504 38.026 26.8811 38.026 26.0313" stroke="#31502C" stroke-width="3.5" stroke-linecap="round" stroke-linejoin="round"/>
<path d="M11.9601 24.0316H19.9601M11.9601 32.03H27.9601M42 12.0341C42 17.555 37.52 22.0321 31.99 22.0321C30.676 22.0334 29.3746 21.7757 28.1602 21.2739C26.9457 20.772 25.8422 20.0358 24.9125 19.1073C23.9829 18.1787 23.2454 17.0761 22.7422 15.8625C22.2391 14.6488 21.9801 13.3479 21.9801 12.0341C21.9801 6.51122 26.4621 2.03614 31.99 2.03614C33.3041 2.03482 34.6055 2.29246 35.8199 2.79432C37.0343 3.29617 38.1379 4.03241 39.0675 4.96094C39.9972 5.88946 40.7347 6.99207 41.2378 8.20573C41.741 9.41939 42 10.7203 42 12.0341Z" stroke="#31502C" stroke-width="3.5" stroke-linecap="round" stroke-linejoin="round"/>
</svg>
