<svg width="17" height="17" viewBox="0 0 17 17" fill="none" xmlns="http://www.w3.org/2000/svg">
<path fill-rule="evenodd" clip-rule="evenodd" d="M13.6721 2.36364H9.73967V1H16V7.26033H14.6364V3.32787L7.74245 10.2218L6.77821 9.25755L13.6721 2.36364ZM3.04545 4.84298C2.6689 4.84298 2.36364 5.14824 2.36364 5.52479V13.9545C2.36364 14.3311 2.6689 14.6364 3.04545 14.6364H11.4752C11.8518 14.6364 12.157 14.3311 12.157 13.9545V9.11983H13.5207V13.9545C13.5207 15.0842 12.6049 16 11.4752 16H3.04545C1.91578 16 1 15.0842 1 13.9545V5.52479C1 4.39512 1.91578 3.47934 3.04545 3.47934H7.88017V4.84298H3.04545Z" fill="#31502C" stroke="#31502C" stroke-width="0.5"/>
</svg>
