<svg width="61" height="60" viewBox="0 0 61 60" fill="none" xmlns="http://www.w3.org/2000/svg">
<rect x="0.5" width="60" height="60" rx="15" fill="#31502C"/>
<path d="M30.4759 19.3198H30.5482C30.8616 19.3198 31.1147 19.0668 31.1147 18.7535V16.3075H32.3322V16.7895C32.3322 17.1871 32.6576 17.5124 33.0554 17.5124H35.5625C35.7554 17.5124 35.9121 17.3558 35.9121 17.163V15.452C35.9121 15.3593 35.8752 15.2704 35.8097 15.2049C35.7441 15.1394 35.6552 15.1026 35.5625 15.1026H34.7188V14.3796C34.7188 14.1145 34.5018 13.8976 34.2366 13.8976H31.0894C31.0534 13.7823 30.9815 13.6815 30.8841 13.61C30.7868 13.5385 30.6691 13.4999 30.5482 13.5H30.4759C30.3257 13.5 30.1816 13.5597 30.0753 13.6659C29.9691 13.7721 29.9094 13.9161 29.9094 14.0663V18.7535C29.9094 19.0668 30.1625 19.3198 30.4759 19.3198ZM29.901 29.1207C29.8986 29.0991 29.8974 29.0773 29.8973 29.0556V27.3567C29.8973 27.0193 30.1625 26.7542 30.5 26.7542C30.8375 26.7542 31.1027 27.0193 31.1027 27.3567V28.9231L32.7179 30.5377C32.9589 30.7786 32.9589 31.1522 32.7179 31.3932C32.5853 31.5137 32.4406 31.5739 32.2839 31.5739C32.2049 31.5749 32.1265 31.5593 32.0539 31.5282C31.9812 31.497 31.9159 31.451 31.8621 31.3932L30.0781 29.6099C30.0138 29.5468 29.9644 29.4702 29.9338 29.3855C29.9031 29.3008 29.8919 29.2103 29.901 29.1207Z" fill="#F3CD00"/>
<path d="M40.1308 30.3208L40.1429 28.1278C40.1429 27.7663 39.9982 27.429 39.7451 27.1759L36.9004 24.3323H44.0482C44.6027 24.3323 45.0969 24.6697 45.3018 25.1878L47.3702 30.369H47.375V47.238H38.9496V47.25H34.1161V47.238H34.1281V40.8518C34.1281 40.3819 33.7545 40.0084 33.2844 40.0084H27.6795C27.2094 40.0084 26.8357 40.3819 26.8357 40.8518V47.238H26.8839V47.25H22.0746V47.1404L22.0625 47.238H13.625V30.369H13.6298L15.6982 25.1878C15.9031 24.6697 16.3973 24.3323 16.9518 24.3323H24.0996L21.2549 27.1759C21.0018 27.429 20.8571 27.7784 20.8571 28.1278V30.3208H20.8692C20.8692 30.3328 20.8668 30.3413 20.8632 30.3509C20.8594 30.3605 20.8574 30.3707 20.8571 30.381V30.9714C20.8571 31.1312 20.9206 31.2845 21.0337 31.3975C21.1467 31.5104 21.3 31.5739 21.4598 31.5739C21.6197 31.5739 21.773 31.5104 21.886 31.3975C21.999 31.2845 22.0625 31.1312 22.0625 30.9714V30.381C22.0623 30.3707 22.0602 30.3605 22.0565 30.3509C22.0541 30.3413 22.0504 30.3328 22.0504 30.3208H22.0625V28.8628C22.0625 28.8026 22.0673 28.7435 22.0746 28.6857C22.0914 28.3932 22.2159 28.1172 22.4241 27.9109L29.8371 20.6091C29.9255 20.5202 30.0307 20.4496 30.1466 20.4015C30.2624 20.3534 30.3866 20.3286 30.5121 20.3286C30.6375 20.3286 30.7617 20.3534 30.8776 20.4015C30.9934 20.4496 31.0986 20.5202 31.1871 20.6091L38.6 27.9109C38.817 28.1278 38.9375 28.417 38.9496 28.7182V31.0919C38.9793 31.2384 39.0624 31.3685 39.1827 31.4571C39.3031 31.5457 39.452 31.5865 39.6007 31.5715C39.7494 31.5564 39.8873 31.4867 39.9874 31.3759C40.0876 31.265 40.143 31.1208 40.1429 30.9714V30.3714C40.1429 30.3509 40.1417 30.3316 40.1308 30.3208ZM30.5 32.7788C31.4594 32.7788 32.3794 32.3979 33.0578 31.7197C33.7362 31.0416 34.1173 30.1219 34.1173 29.1628C34.1173 28.2038 33.7362 27.2841 33.0578 26.606C32.3794 25.9278 31.4594 25.5469 30.5 25.5469C29.5406 25.5469 28.6206 25.9278 27.9422 26.606C27.2638 27.2841 26.8827 28.2038 26.8827 29.1628C26.8827 30.1219 27.2638 31.0416 27.9422 31.7197C28.6206 32.3979 29.5406 32.7788 30.5 32.7788ZM22.0746 30.4654V30.381H22.0637L22.0746 30.4654ZM15.1679 36.3936H16.9036C17.0964 36.3936 17.2411 36.249 17.2411 36.0562V33.1162C17.2411 32.9355 17.0844 32.7788 16.9036 32.7788H15.1679C14.9871 32.7788 14.8304 32.9355 14.8304 33.1162V36.0562C14.8304 36.237 14.9871 36.3936 15.1679 36.3936ZM20.5196 36.3936C20.7125 36.3936 20.8571 36.249 20.8571 36.0562V33.1162C20.8571 32.9355 20.7004 32.7788 20.5196 32.7788H18.7839C18.6031 32.7788 18.4464 32.9355 18.4464 33.1162V36.0562C18.4464 36.237 18.6031 36.3936 18.7839 36.3936H20.5196ZM16.9036 41.2133C17.0964 41.2133 17.2411 41.0687 17.2411 40.8759V37.9359C17.2411 37.7552 17.0844 37.5985 16.9036 37.5985H15.1679C14.9871 37.5985 14.8304 37.7552 14.8304 37.9359V40.8759C14.8304 41.0567 14.9871 41.2133 15.1679 41.2133H16.9036ZM20.5196 41.2133C20.7125 41.2133 20.8571 41.0687 20.8571 40.8759V37.9359C20.8571 37.7552 20.7004 37.5985 20.5196 37.5985H18.7839C18.6031 37.5985 18.4464 37.7552 18.4464 37.9359V40.8759C18.4464 41.0567 18.6031 41.2133 18.7839 41.2133H20.5196ZM40.1429 36.0562C40.1429 36.237 40.2996 36.3936 40.4804 36.3936H42.2161C42.4089 36.3936 42.5536 36.249 42.5536 36.0562V33.1162C42.5536 32.9355 42.3969 32.7788 42.2161 32.7788H40.4804C40.2996 32.7788 40.1429 32.9355 40.1429 33.1162V36.0562ZM46.1696 36.0562V33.1162C46.1696 32.9355 46.0129 32.7788 45.8321 32.7788H44.0964C43.9156 32.7788 43.7589 32.9355 43.7589 33.1162V36.0562C43.7589 36.237 43.9156 36.3936 44.0964 36.3936H45.8321C46.025 36.3936 46.1696 36.249 46.1696 36.0562ZM42.5536 40.8759V37.9359C42.5536 37.7552 42.3969 37.5985 42.2161 37.5985H40.4804C40.2996 37.5985 40.1429 37.7552 40.1429 37.9359V40.8759C40.1429 41.0567 40.2996 41.2133 40.4804 41.2133H42.2161C42.4089 41.2133 42.5536 41.0687 42.5536 40.8759ZM46.1696 40.8759V37.9359C46.1696 37.7552 46.0129 37.5985 45.8321 37.5985H44.0964C43.9156 37.5985 43.7589 37.7552 43.7589 37.9359V40.8759C43.7589 41.0567 43.9156 41.2133 44.0964 41.2133H45.8321C46.025 41.2133 46.1696 41.0687 46.1696 40.8759Z" fill="#F3CD00"/>
</svg>
