<svg width="81" height="80" viewBox="0 0 81 80" fill="none" xmlns="http://www.w3.org/2000/svg">
<rect x="0.5" width="80" height="80" rx="40" fill="#31502C"/>
<path d="M40.7502 25.7597H40.8467C41.2645 25.7597 41.602 25.4223 41.602 25.0046V21.7433H43.2253V22.3859C43.2253 22.9161 43.6592 23.3499 44.1895 23.3499H47.5324C47.7895 23.3499 47.9985 23.141 47.9985 22.884V20.6026C47.9985 20.4791 47.9494 20.3606 47.862 20.2732C47.7746 20.1858 47.656 20.1367 47.5324 20.1367H46.4074V19.1728C46.4074 18.8194 46.1181 18.5302 45.7645 18.5302H41.5683C41.5203 18.3764 41.4244 18.242 41.2946 18.1467C41.1647 18.0513 41.0078 17.9999 40.8467 18H40.7502C40.5499 18 40.3578 18.0796 40.2161 18.2212C40.0745 18.3628 39.9949 18.5548 39.9949 18.7551V25.0046C39.9949 25.4223 40.3324 25.7597 40.7502 25.7597ZM39.9836 38.8276C39.9806 38.7987 39.9789 38.7698 39.9788 38.7408V36.4755C39.9788 36.0257 40.3324 35.6723 40.7824 35.6723C41.2324 35.6723 41.586 36.0257 41.586 36.4755V38.5641L43.7395 40.7169C44.061 41.0382 44.061 41.5362 43.7395 41.8576C43.5627 42.0182 43.3699 42.0985 43.161 42.0985C43.0556 42.0998 42.9511 42.079 42.8542 42.0375C42.7573 41.996 42.6702 41.9347 42.5985 41.8576L40.2199 39.4798C40.1341 39.3958 40.0683 39.2935 40.0274 39.1806C39.9865 39.0677 39.9715 38.947 39.9836 38.8276Z" fill="#F3CD00"/>
<path d="M53.6234 40.4277L53.6395 37.5037C53.6395 37.0218 53.4466 36.5719 53.1091 36.2346L49.3163 32.4431H58.8466C59.5859 32.4431 60.2449 32.8929 60.5181 33.5837L63.2759 40.492H63.2823V62.9839H52.0484V63H45.6038V62.9839H45.6198V54.4691C45.6198 53.8426 45.1216 53.3445 44.4948 53.3445H37.0216C36.3948 53.3445 35.8966 53.8426 35.8966 54.4691V62.9839H35.9609V63H29.5484V62.8538L29.5323 62.9839H18.2823V40.492H18.2888L21.0466 33.5837C21.3198 32.8929 21.9788 32.4431 22.7181 32.4431H32.2484L28.4556 36.2346C28.1181 36.5719 27.9252 37.0378 27.9252 37.5037V40.4277H27.9413C27.9413 40.4438 27.9381 40.455 27.9332 40.4679C27.9283 40.4807 27.9255 40.4943 27.9252 40.508V41.2953C27.9252 41.5083 28.0099 41.7126 28.1606 41.8633C28.3113 42.0139 28.5157 42.0985 28.7288 42.0985C28.9419 42.0985 29.1463 42.0139 29.297 41.8633C29.4477 41.7126 29.5323 41.5083 29.5323 41.2953V40.508C29.532 40.4943 29.5293 40.4807 29.5243 40.4679C29.5211 40.455 29.5163 40.4438 29.5163 40.4277H29.5323V38.4838C29.5323 38.4034 29.5388 38.3247 29.5484 38.2476C29.5709 37.8575 29.7369 37.4896 30.0145 37.2146L39.8984 27.4788C40.0164 27.3602 40.1566 27.2662 40.3111 27.202C40.4655 27.1378 40.6312 27.1048 40.7984 27.1048C40.9657 27.1048 41.1313 27.1378 41.2857 27.202C41.4402 27.2662 41.5804 27.3602 41.6984 27.4788L51.5823 37.2146C51.8716 37.5037 52.0323 37.8893 52.0484 38.291V41.4559C52.0881 41.6511 52.1989 41.8247 52.3593 41.9428C52.5198 42.061 52.7184 42.1153 52.9167 42.0953C53.1149 42.0753 53.2987 41.9823 53.4323 41.8345C53.5658 41.6866 53.6397 41.4945 53.6395 41.2953V40.4952C53.6395 40.4679 53.6379 40.4422 53.6234 40.4277ZM40.7823 43.7051C42.0615 43.7051 43.2883 43.1971 44.1928 42.293C45.0972 41.3888 45.6054 40.1625 45.6054 38.8838C45.6054 37.6051 45.0972 36.3788 44.1928 35.4746C43.2883 34.5704 42.0615 34.0625 40.7823 34.0625C39.5032 34.0625 38.2764 34.5704 37.3719 35.4746C36.4675 36.3788 35.9593 37.6051 35.9593 38.8838C35.9593 40.1625 36.4675 41.3888 37.3719 42.293C38.2764 43.1971 39.5032 43.7051 40.7823 43.7051ZM29.5484 40.6205V40.508H29.534L29.5484 40.6205ZM20.3395 48.5248H22.6538C22.9109 48.5248 23.1038 48.332 23.1038 48.075V44.1549C23.1038 43.914 22.8948 43.7051 22.6538 43.7051H20.3395C20.0984 43.7051 19.8895 43.914 19.8895 44.1549V48.075C19.8895 48.316 20.0984 48.5248 20.3395 48.5248ZM27.4752 48.5248C27.7323 48.5248 27.9252 48.332 27.9252 48.075V44.1549C27.9252 43.914 27.7163 43.7051 27.4752 43.7051H25.1609C24.9198 43.7051 24.7109 43.914 24.7109 44.1549V48.075C24.7109 48.316 24.9198 48.5248 25.1609 48.5248H27.4752ZM22.6538 54.9511C22.9109 54.9511 23.1038 54.7583 23.1038 54.5012V50.5812C23.1038 50.3402 22.8948 50.1314 22.6538 50.1314H20.3395C20.0984 50.1314 19.8895 50.3402 19.8895 50.5812V54.5012C19.8895 54.7422 20.0984 54.9511 20.3395 54.9511H22.6538ZM27.4752 54.9511C27.7323 54.9511 27.9252 54.7583 27.9252 54.5012V50.5812C27.9252 50.3402 27.7163 50.1314 27.4752 50.1314H25.1609C24.9198 50.1314 24.7109 50.3402 24.7109 50.5812V54.5012C24.7109 54.7422 24.9198 54.9511 25.1609 54.9511H27.4752ZM53.6395 48.075C53.6395 48.316 53.8484 48.5248 54.0895 48.5248H56.4038C56.6609 48.5248 56.8538 48.332 56.8538 48.075V44.1549C56.8538 43.914 56.6448 43.7051 56.4038 43.7051H54.0895C53.8484 43.7051 53.6395 43.914 53.6395 44.1549V48.075ZM61.6752 48.075V44.1549C61.6752 43.914 61.4663 43.7051 61.2252 43.7051H58.9109C58.6698 43.7051 58.4609 43.914 58.4609 44.1549V48.075C58.4609 48.316 58.6698 48.5248 58.9109 48.5248H61.2252C61.4823 48.5248 61.6752 48.332 61.6752 48.075ZM56.8538 54.5012V50.5812C56.8538 50.3402 56.6448 50.1314 56.4038 50.1314H54.0895C53.8484 50.1314 53.6395 50.3402 53.6395 50.5812V54.5012C53.6395 54.7422 53.8484 54.9511 54.0895 54.9511H56.4038C56.6609 54.9511 56.8538 54.7583 56.8538 54.5012ZM61.6752 54.5012V50.5812C61.6752 50.3402 61.4663 50.1314 61.2252 50.1314H58.9109C58.6698 50.1314 58.4609 50.3402 58.4609 50.5812V54.5012C58.4609 54.7422 58.6698 54.9511 58.9109 54.9511H61.2252C61.4823 54.9511 61.6752 54.7583 61.6752 54.5012Z" fill="#F3CD00"/>
</svg>
