<svg width="38" height="38" viewBox="0 0 38 38" fill="none" xmlns="http://www.w3.org/2000/svg">
<path d="M20.5337 20.1464C20.5943 20.2115 20.6678 20.2633 20.7496 20.2984C20.8314 20.3334 20.9197 20.351 21.0087 20.3499C21.1851 20.3499 21.348 20.282 21.4972 20.1464M20.5337 20.1464L18.3215 17.5145L18.7592 17.5126M20.5337 20.1464L18.5251 18.1385L20.5337 20.1464ZM21.4972 20.1464L21.056 19.6608L21.0387 19.6418L21.0384 19.6415L21.0334 19.636L21.0087 19.6088L20.9995 19.5987L20.8247 19.4063C20.8264 19.4049 20.8439 19.3903 20.8786 19.3759C20.9153 19.3606 20.9565 19.3516 20.9965 19.3501C20.9986 19.35 21.0008 19.35 21.0029 19.3499M21.4972 20.1464L21.0331 19.6821L21.0195 19.6685L21.0158 19.6648L21.0155 19.6644L21.0087 19.6576L21.0001 19.6491L20.7903 19.4391C20.7387 19.4907 20.7008 19.572 20.7008 19.6648C20.7008 19.7573 20.7385 19.8384 20.7899 19.89M21.4972 20.1464L20.7899 19.89M21.0029 19.3499C21.0048 19.3499 21.0067 19.35 21.0087 19.35C21.055 19.351 21.1008 19.3609 21.1434 19.3792C21.1786 19.3942 21.2111 19.4148 21.2398 19.44C21.2399 19.4401 21.2401 19.4402 21.2402 19.4403C21.2492 19.4482 21.2578 19.4566 21.266 19.4655L21.2536 19.4521L21.241 19.4395L21.2407 19.4391L19.7154 17.9145L19.3216 17.5207M21.0029 19.3499C21.0048 19.3499 21.0068 19.3499 21.0087 19.3499V19.3498L20.9966 19.3499C20.9987 19.3499 21.0008 19.3499 21.0029 19.3499ZM19.3216 17.5207C19.3216 17.518 19.3215 17.5152 19.3215 17.5124M19.3216 17.5207C19.3216 17.5338 19.3217 17.5463 19.3217 17.5585C19.3218 17.5913 19.3219 17.6217 19.3221 17.6534C19.3219 17.6166 19.3153 17.58 19.3028 17.5453C19.2989 17.5348 19.2946 17.5245 19.2897 17.5145L18.7592 17.5126M19.3216 17.5207L19.3153 17.5145H19.3215V17.5124M19.3215 17.5124V16.9509V15.6016C19.3215 15.7743 19.1721 15.9232 19.0001 15.9232C18.8282 15.9232 18.6787 15.7743 18.6787 15.6016V16.9509C18.6787 17.1428 18.7062 17.3318 18.7592 17.5126M19.3215 17.5124C19.3215 17.5117 19.3215 17.511 19.3215 17.5103L19.3112 17.5103L19.2321 17.4313L19.2321 17.4312L19.2247 17.424C19.2272 17.4264 19.2296 17.4289 19.232 17.4314C19.2545 17.4548 19.2733 17.4815 19.2878 17.5104L19.1524 17.511L19.1394 17.511L18.7592 17.5126M20.7899 19.89C20.79 19.8901 20.7902 19.8903 20.7903 19.8904L20.7899 19.89ZM19.3351 2.52204V1.26199C19.5153 1.35507 19.7649 1.4477 20.0684 1.4477H22.8082C22.9719 2.07767 23.4656 2.57457 24.0937 2.74276V3.51767H22.0519C21.96 2.75339 21.3093 2.16101 20.5203 2.16101H20.3776C19.984 2.16101 19.6219 2.29593 19.3351 2.52204Z" stroke="#31502C" stroke-width="2"/>
<mask id="path-2-inside-1_1175_1923" fill="white">
<path d="M29.8571 18.9959C29.8571 18.9575 29.8437 18.9173 29.8439 18.8789L29.8571 16.4698C29.8571 16.0628 29.6943 15.683 29.4093 15.3981L27.9143 13.9036C27.2841 13.2737 27.7303 12.1963 28.6213 12.1963H34.2543C34.8786 12.1963 35.435 12.5762 35.6657 13.1596L37.9938 18.9912C37.9942 18.9924 37.9954 18.9932 37.9968 18.9932V18.9932C37.9985 18.9932 38 18.9947 38 18.9964V36.9864C38 37.5387 37.5523 37.9864 37 37.9864H28.5204C28.5166 37.9864 28.5136 37.9895 28.5136 37.9932V37.9932C28.5136 37.9969 28.5105 38 28.5068 38H23.0782C23.0745 38 23.0714 37.9969 23.0714 37.9932V37.9932C23.0714 37.9895 23.0745 37.9864 23.0782 37.9864V37.9864C23.082 37.9864 23.085 37.9834 23.085 37.9796V30.7961C23.085 30.267 22.6643 29.8465 22.135 29.8465H15.8243C15.295 29.8465 14.8743 30.267 14.8743 30.7961V37.9593C14.8743 37.9743 14.8864 37.9864 14.9014 37.9864H14.9218C14.9255 37.9864 14.9286 37.9895 14.9286 37.9932V37.9932C14.9286 37.9969 14.9255 38 14.9218 38H9.63703C9.56884 38 9.51357 37.9447 9.51357 37.8765V37.8765V37.8765C9.50582 37.9393 9.45251 37.9864 9.38928 37.9864H1C0.447715 37.9864 0 37.5387 0 36.9864V18.9964C0 18.9947 0.00144881 18.9932 0.00323601 18.9932V18.9932C0.00456003 18.9932 0.00575049 18.9924 0.00624139 18.9912L2.33429 13.1596C2.565 12.5762 3.12143 12.1963 3.74571 12.1963H9.37875C10.2697 12.1963 10.7159 13.2737 10.0857 13.9036L8.59071 15.3981C8.30571 15.683 8.14286 16.0764 8.14286 16.4698V18.9322C8.14286 18.9359 8.14589 18.9389 8.14964 18.9389V18.9389C8.15339 18.9389 8.15646 18.942 8.15619 18.9457C8.15544 18.9559 8.153 18.9639 8.14964 18.9729C8.14543 18.9837 8.14314 18.9952 8.14286 19.0068V19.6715C8.14286 19.8514 8.21435 20.024 8.34161 20.1512C8.46886 20.2784 8.64146 20.3499 8.82143 20.3499C9.0014 20.3499 9.17399 20.2784 9.30125 20.1512C9.42851 20.024 9.5 19.8514 9.5 19.6715V19.0068C9.49972 18.9952 9.49742 18.9837 9.49321 18.9729C9.49097 18.9639 9.48781 18.9559 9.48677 18.9457C9.48639 18.942 9.48947 18.9389 9.49321 18.9389V18.9389C9.49696 18.9389 9.5 18.9359 9.5 18.9322V17.2974C9.5 17.2295 9.50543 17.1631 9.51357 17.098C9.53254 16.7686 9.67273 16.4579 9.90714 16.2256L18.2536 8.00427C18.3532 7.90419 18.4716 7.82476 18.602 7.77057C18.7325 7.71638 18.8723 7.68848 19.0136 7.68848C19.1548 7.68848 19.2947 7.71638 19.4251 7.77057C19.5555 7.82476 19.6739 7.90419 19.7736 8.00427L28.12 16.2256C28.3643 16.4698 28.5 16.7954 28.5136 17.1346V19.7067C28.5136 19.7735 28.518 19.8411 28.5408 19.9039C28.5862 20.0289 28.6678 20.1386 28.7761 20.2184C28.9116 20.3181 29.0793 20.364 29.2468 20.3471C29.4142 20.3302 29.5694 20.2517 29.6822 20.1269C29.7949 20.002 29.8573 19.8398 29.8571 19.6715V18.9959V18.9959ZM19 21.7065C20.0802 21.7065 21.1161 21.2776 21.8799 20.5141C22.6437 19.7505 23.0728 18.715 23.0728 17.6352C23.0728 16.5554 22.6437 15.5198 21.8799 14.7563C21.1161 13.9928 20.0802 13.5639 19 13.5639C17.9198 13.5639 16.8839 13.9928 16.1201 14.7563C15.3563 15.5198 14.9272 16.5554 14.9272 17.6352C14.9272 18.715 15.3563 19.7505 16.1201 20.5141C16.8839 21.2776 17.9198 21.7065 19 21.7065ZM9.51357 19.1017V19.0125C9.51357 19.0093 9.51101 19.0068 9.50786 19.0068V19.0068C9.50441 19.0068 9.50175 19.0098 9.50219 19.0132L9.51357 19.1017ZM1.73714 25.7765H3.69143C3.90857 25.7765 4.07143 25.6137 4.07143 25.3966V22.0864C4.07143 21.8829 3.895 21.7065 3.69143 21.7065H1.73714C1.53357 21.7065 1.35714 21.8829 1.35714 22.0864V25.3966C1.35714 25.6001 1.53357 25.7765 1.73714 25.7765ZM7.76286 25.7765C7.98 25.7765 8.14286 25.6137 8.14286 25.3966V22.0864C8.14286 21.8829 7.96643 21.7065 7.76286 21.7065H5.80857C5.605 21.7065 5.42857 21.8829 5.42857 22.0864V25.3966C5.42857 25.6001 5.605 25.7765 5.80857 25.7765H7.76286ZM3.69143 31.2031C3.90857 31.2031 4.07143 31.0403 4.07143 30.8233V27.513C4.07143 27.3095 3.895 27.1332 3.69143 27.1332H1.73714C1.53357 27.1332 1.35714 27.3095 1.35714 27.513V30.8233C1.35714 31.0268 1.53357 31.2031 1.73714 31.2031H3.69143ZM7.76286 31.2031C7.98 31.2031 8.14286 31.0403 8.14286 30.8233V27.513C8.14286 27.3095 7.96643 27.1332 7.76286 27.1332H5.80857C5.605 27.1332 5.42857 27.3095 5.42857 27.513V30.8233C5.42857 31.0268 5.605 31.2031 5.80857 31.2031H7.76286ZM29.8571 25.3966C29.8571 25.6001 30.0336 25.7765 30.2371 25.7765H32.1914C32.4086 25.7765 32.5714 25.6137 32.5714 25.3966V22.0864C32.5714 21.8829 32.395 21.7065 32.1914 21.7065H30.2371C30.0336 21.7065 29.8571 21.8829 29.8571 22.0864V25.3966ZM36.6429 25.3966V22.0864C36.6429 21.8829 36.4664 21.7065 36.2629 21.7065H34.3086C34.105 21.7065 33.9286 21.8829 33.9286 22.0864V25.3966C33.9286 25.6001 34.105 25.7765 34.3086 25.7765H36.2629C36.48 25.7765 36.6429 25.6137 36.6429 25.3966ZM32.5714 30.8233V27.513C32.5714 27.3095 32.395 27.1332 32.1914 27.1332H30.2371C30.0336 27.1332 29.8571 27.3095 29.8571 27.513V30.8233C29.8571 31.0268 30.0336 31.2031 30.2371 31.2031H32.1914C32.4086 31.2031 32.5714 31.0403 32.5714 30.8233ZM36.6429 30.8233V27.513C36.6429 27.3095 36.4664 27.1332 36.2629 27.1332H34.3086C34.105 27.1332 33.9286 27.3095 33.9286 27.513V30.8233C33.9286 31.0268 34.105 31.2031 34.3086 31.2031H36.2629C36.48 31.2031 36.6429 31.0403 36.6429 30.8233Z"/>
</mask>
<path d="M29.8571 18.9959C29.8571 18.9575 29.8437 18.9173 29.8439 18.8789L29.8571 16.4698C29.8571 16.0628 29.6943 15.683 29.4093 15.3981L27.9143 13.9036C27.2841 13.2737 27.7303 12.1963 28.6213 12.1963H34.2543C34.8786 12.1963 35.435 12.5762 35.6657 13.1596L37.9938 18.9912C37.9942 18.9924 37.9954 18.9932 37.9968 18.9932V18.9932C37.9985 18.9932 38 18.9947 38 18.9964V36.9864C38 37.5387 37.5523 37.9864 37 37.9864H28.5204C28.5166 37.9864 28.5136 37.9895 28.5136 37.9932V37.9932C28.5136 37.9969 28.5105 38 28.5068 38H23.0782C23.0745 38 23.0714 37.9969 23.0714 37.9932V37.9932C23.0714 37.9895 23.0745 37.9864 23.0782 37.9864V37.9864C23.082 37.9864 23.085 37.9834 23.085 37.9796V30.7961C23.085 30.267 22.6643 29.8465 22.135 29.8465H15.8243C15.295 29.8465 14.8743 30.267 14.8743 30.7961V37.9593C14.8743 37.9743 14.8864 37.9864 14.9014 37.9864H14.9218C14.9255 37.9864 14.9286 37.9895 14.9286 37.9932V37.9932C14.9286 37.9969 14.9255 38 14.9218 38H9.63703C9.56884 38 9.51357 37.9447 9.51357 37.8765V37.8765V37.8765C9.50582 37.9393 9.45251 37.9864 9.38928 37.9864H1C0.447715 37.9864 0 37.5387 0 36.9864V18.9964C0 18.9947 0.00144881 18.9932 0.00323601 18.9932V18.9932C0.00456003 18.9932 0.00575049 18.9924 0.00624139 18.9912L2.33429 13.1596C2.565 12.5762 3.12143 12.1963 3.74571 12.1963H9.37875C10.2697 12.1963 10.7159 13.2737 10.0857 13.9036L8.59071 15.3981C8.30571 15.683 8.14286 16.0764 8.14286 16.4698V18.9322C8.14286 18.9359 8.14589 18.9389 8.14964 18.9389V18.9389C8.15339 18.9389 8.15646 18.942 8.15619 18.9457C8.15544 18.9559 8.153 18.9639 8.14964 18.9729C8.14543 18.9837 8.14314 18.9952 8.14286 19.0068V19.6715C8.14286 19.8514 8.21435 20.024 8.34161 20.1512C8.46886 20.2784 8.64146 20.3499 8.82143 20.3499C9.0014 20.3499 9.17399 20.2784 9.30125 20.1512C9.42851 20.024 9.5 19.8514 9.5 19.6715V19.0068C9.49972 18.9952 9.49742 18.9837 9.49321 18.9729C9.49097 18.9639 9.48781 18.9559 9.48677 18.9457C9.48639 18.942 9.48947 18.9389 9.49321 18.9389V18.9389C9.49696 18.9389 9.5 18.9359 9.5 18.9322V17.2974C9.5 17.2295 9.50543 17.1631 9.51357 17.098C9.53254 16.7686 9.67273 16.4579 9.90714 16.2256L18.2536 8.00427C18.3532 7.90419 18.4716 7.82476 18.602 7.77057C18.7325 7.71638 18.8723 7.68848 19.0136 7.68848C19.1548 7.68848 19.2947 7.71638 19.4251 7.77057C19.5555 7.82476 19.6739 7.90419 19.7736 8.00427L28.12 16.2256C28.3643 16.4698 28.5 16.7954 28.5136 17.1346V19.7067C28.5136 19.7735 28.518 19.8411 28.5408 19.9039C28.5862 20.0289 28.6678 20.1386 28.7761 20.2184C28.9116 20.3181 29.0793 20.364 29.2468 20.3471C29.4142 20.3302 29.5694 20.2517 29.6822 20.1269C29.7949 20.002 29.8573 19.8398 29.8571 19.6715V18.9959V18.9959ZM19 21.7065C20.0802 21.7065 21.1161 21.2776 21.8799 20.5141C22.6437 19.7505 23.0728 18.715 23.0728 17.6352C23.0728 16.5554 22.6437 15.5198 21.8799 14.7563C21.1161 13.9928 20.0802 13.5639 19 13.5639C17.9198 13.5639 16.8839 13.9928 16.1201 14.7563C15.3563 15.5198 14.9272 16.5554 14.9272 17.6352C14.9272 18.715 15.3563 19.7505 16.1201 20.5141C16.8839 21.2776 17.9198 21.7065 19 21.7065ZM9.51357 19.1017V19.0125C9.51357 19.0093 9.51101 19.0068 9.50786 19.0068V19.0068C9.50441 19.0068 9.50175 19.0098 9.50219 19.0132L9.51357 19.1017ZM1.73714 25.7765H3.69143C3.90857 25.7765 4.07143 25.6137 4.07143 25.3966V22.0864C4.07143 21.8829 3.895 21.7065 3.69143 21.7065H1.73714C1.53357 21.7065 1.35714 21.8829 1.35714 22.0864V25.3966C1.35714 25.6001 1.53357 25.7765 1.73714 25.7765ZM7.76286 25.7765C7.98 25.7765 8.14286 25.6137 8.14286 25.3966V22.0864C8.14286 21.8829 7.96643 21.7065 7.76286 21.7065H5.80857C5.605 21.7065 5.42857 21.8829 5.42857 22.0864V25.3966C5.42857 25.6001 5.605 25.7765 5.80857 25.7765H7.76286ZM3.69143 31.2031C3.90857 31.2031 4.07143 31.0403 4.07143 30.8233V27.513C4.07143 27.3095 3.895 27.1332 3.69143 27.1332H1.73714C1.53357 27.1332 1.35714 27.3095 1.35714 27.513V30.8233C1.35714 31.0268 1.53357 31.2031 1.73714 31.2031H3.69143ZM7.76286 31.2031C7.98 31.2031 8.14286 31.0403 8.14286 30.8233V27.513C8.14286 27.3095 7.96643 27.1332 7.76286 27.1332H5.80857C5.605 27.1332 5.42857 27.3095 5.42857 27.513V30.8233C5.42857 31.0268 5.605 31.2031 5.80857 31.2031H7.76286ZM29.8571 25.3966C29.8571 25.6001 30.0336 25.7765 30.2371 25.7765H32.1914C32.4086 25.7765 32.5714 25.6137 32.5714 25.3966V22.0864C32.5714 21.8829 32.395 21.7065 32.1914 21.7065H30.2371C30.0336 21.7065 29.8571 21.8829 29.8571 22.0864V25.3966ZM36.6429 25.3966V22.0864C36.6429 21.8829 36.4664 21.7065 36.2629 21.7065H34.3086C34.105 21.7065 33.9286 21.8829 33.9286 22.0864V25.3966C33.9286 25.6001 34.105 25.7765 34.3086 25.7765H36.2629C36.48 25.7765 36.6429 25.6137 36.6429 25.3966ZM32.5714 30.8233V27.513C32.5714 27.3095 32.395 27.1332 32.1914 27.1332H30.2371C30.0336 27.1332 29.8571 27.3095 29.8571 27.513V30.8233C29.8571 31.0268 30.0336 31.2031 30.2371 31.2031H32.1914C32.4086 31.2031 32.5714 31.0403 32.5714 30.8233ZM36.6429 30.8233V27.513C36.6429 27.3095 36.4664 27.1332 36.2629 27.1332H34.3086C34.105 27.1332 33.9286 27.3095 33.9286 27.513V30.8233C33.9286 31.0268 34.105 31.2031 34.3086 31.2031H36.2629C36.48 31.2031 36.6429 31.0403 36.6429 30.8233Z" stroke="#31502C" stroke-width="4" mask="url(#path-2-inside-1_1175_1923)"/>
</svg>
