<svg width="62" height="62" viewBox="0 0 62 62" fill="none" xmlns="http://www.w3.org/2000/svg">
<path d="M13.8571 17.5517C12.1619 17.5517 10.5047 17.0664 9.09511 16.157C7.68555 15.2476 6.58693 13.9551 5.93818 12.4429C5.28942 10.9307 5.11968 9.26669 5.45041 7.66132C5.78114 6.05597 6.59749 4.58135 7.79623 3.42395C8.99496 2.26655 10.5222 1.47835 12.1849 1.15902C13.8476 0.839696 15.5711 1.00359 17.1373 1.62997C18.7035 2.25635 20.0422 3.31708 20.984 4.67804C21.9259 6.039 22.4286 7.63905 22.4286 9.27587C22.4286 11.4708 21.5255 13.5758 19.9181 15.1278C18.3106 16.6798 16.1304 17.5517 13.8571 17.5517ZM13.8571 5.13793C13.0095 5.13793 12.1809 5.38062 11.4761 5.8353C10.7713 6.28998 10.222 6.93624 9.89766 7.69235C9.57328 8.44846 9.48841 9.28046 9.65378 10.0831C9.81914 10.8858 10.2273 11.6231 10.8267 12.2018C11.4261 12.7805 12.1897 13.1746 13.021 13.3343C13.8524 13.494 14.7141 13.412 15.4972 13.0988C16.2803 12.7856 16.9497 12.2553 17.4206 11.5748C17.8915 10.8943 18.1429 10.0943 18.1429 9.27587C18.1429 8.17842 17.6913 7.12592 16.8876 6.34991C16.0839 5.57389 14.9938 5.13793 13.8571 5.13793ZM48.1429 17.5517C46.4476 17.5517 44.7904 17.0664 43.3808 16.157C41.9713 15.2476 40.8726 13.9551 40.2239 12.4429C39.5751 10.9307 39.4054 9.26669 39.7361 7.66132C40.0669 6.05597 40.8832 4.58135 42.0819 3.42395C43.2807 2.26655 44.808 1.47835 46.4707 1.15902C48.1334 0.839696 49.8568 1.00359 51.423 1.62997C52.9892 2.25635 54.3279 3.31708 55.2697 4.67804C56.2116 6.039 56.7143 7.63905 56.7143 9.27587C56.7143 11.4708 55.8112 13.5758 54.2038 15.1278C52.5963 16.6798 50.4161 17.5517 48.1429 17.5517ZM48.1429 5.13793C47.2952 5.13793 46.4666 5.38062 45.7618 5.8353C45.0571 6.28998 44.5078 6.93624 44.1834 7.69235C43.859 8.44846 43.7741 9.28046 43.9395 10.0831C44.1049 10.8858 44.513 11.6231 45.1124 12.2018C45.7118 12.7805 46.4754 13.1746 47.3068 13.3343C48.1381 13.494 48.9998 13.412 49.7829 13.0988C50.566 12.7856 51.2354 12.2553 51.7063 11.5748C52.1772 10.8943 52.4286 10.0943 52.4286 9.27587C52.4286 8.17842 51.977 7.12592 51.1733 6.34991C50.3696 5.57389 49.2795 5.13793 48.1429 5.13793ZM52.4286 61H43.8571C42.7205 61 41.6304 60.564 40.8267 59.788C40.023 59.012 39.5714 57.9595 39.5714 56.8621V42.3793H43.8571V56.8621H52.4286V38.2414H56.7143V25.8276C56.7143 25.2789 56.4885 24.7526 56.0867 24.3646C55.6848 23.9766 55.1398 23.7586 54.5714 23.7586H40.8143L31 40.3103L21.1857 23.7586H7.42857C6.86025 23.7586 6.31521 23.9766 5.91334 24.3646C5.51148 24.7526 5.28571 25.2789 5.28571 25.8276V38.2414H9.57143V56.8621H18.1429V42.3793H22.4286V56.8621C22.4286 57.9595 21.977 59.012 21.1733 59.788C20.3696 60.564 19.2795 61 18.1429 61H9.57143C8.43479 61 7.3447 60.564 6.54097 59.788C5.73724 59.012 5.28571 57.9595 5.28571 56.8621V42.3793C4.14907 42.3793 3.05898 41.9434 2.25526 41.1673C1.45153 40.3913 1 39.3388 1 38.2414V25.8276C1 24.1814 1.67729 22.6027 2.88289 21.4387C4.08848 20.2746 5.72361 19.6207 7.42857 19.6207H23.6714L31 32.0345L38.3286 19.6207H54.5714C56.2764 19.6207 57.9115 20.2746 59.1171 21.4387C60.3227 22.6027 61 24.1814 61 25.8276V38.2414C61 39.3388 60.5485 40.3913 59.7447 41.1673C58.941 41.9434 57.8509 42.3793 56.7143 42.3793V56.8621C56.7143 57.9595 56.2628 59.012 55.459 59.788C54.6553 60.564 53.5652 61 52.4286 61Z" fill="#31502C" stroke="#31502C"/>
</svg>
