<svg width="42" height="42" viewBox="0 0 42 42" fill="none" xmlns="http://www.w3.org/2000/svg">
<path d="M9.57143 12.0345C8.44125 12.0345 7.33645 11.7109 6.39674 11.1047C5.45703 10.4984 4.72462 9.63674 4.29212 8.6286C3.85962 7.62046 3.74645 6.51112 3.96694 5.44088C4.18743 4.37064 4.73166 3.38757 5.53082 2.61597C6.32998 1.84437 7.34816 1.3189 8.45663 1.10601C9.56509 0.893131 10.714 1.00239 11.7582 1.41998C12.8023 1.83756 13.6948 2.54472 14.3227 3.45203C14.9506 4.35933 15.2857 5.42604 15.2857 6.51724C15.2857 7.98051 14.6837 9.38384 13.612 10.4185C12.5404 11.4532 11.087 12.0345 9.57143 12.0345ZM9.57143 3.75862C9.00634 3.75862 8.45394 3.92041 7.98409 4.22353C7.51423 4.52666 7.14802 4.95749 6.93177 5.46157C6.71552 5.96564 6.65894 6.5203 6.76919 7.05542C6.87943 7.59054 7.15155 8.08208 7.55112 8.46788C7.9507 8.85368 8.4598 9.11642 9.01403 9.22286C9.56826 9.3293 10.1427 9.27467 10.6648 9.06588C11.1869 8.85708 11.6331 8.5035 11.9471 8.04985C12.261 7.5962 12.4286 7.06285 12.4286 6.51724C12.4286 5.78561 12.1276 5.08395 11.5917 4.5666C11.0559 4.04926 10.3292 3.75862 9.57143 3.75862ZM32.4286 12.0345C31.2984 12.0345 30.1936 11.7109 29.2539 11.1047C28.3142 10.4984 27.5818 9.63674 27.1493 8.6286C26.7168 7.62046 26.6036 6.51112 26.8241 5.44088C27.0446 4.37064 27.5888 3.38757 28.388 2.61597C29.1871 1.84437 30.2053 1.3189 31.3138 1.10601C32.4222 0.893131 33.5712 1.00239 34.6153 1.41998C35.6595 1.83756 36.5519 2.54472 37.1798 3.45203C37.8077 4.35933 38.1429 5.42604 38.1429 6.51724C38.1429 7.98051 37.5408 9.38384 36.4692 10.4185C35.3975 11.4532 33.9441 12.0345 32.4286 12.0345ZM32.4286 3.75862C31.8635 3.75862 31.3111 3.92041 30.8412 4.22353C30.3714 4.52666 30.0052 4.95749 29.7889 5.46157C29.5727 5.96564 29.5161 6.5203 29.6263 7.05542C29.7366 7.59054 30.0087 8.08208 30.4083 8.46788C30.8078 8.85368 31.3169 9.11642 31.8712 9.22286C32.4254 9.3293 32.9999 9.27467 33.522 9.06588C34.044 8.85708 34.4903 8.5035 34.8042 8.04985C35.1181 7.5962 35.2857 7.06285 35.2857 6.51724C35.2857 5.78561 34.9847 5.08395 34.4489 4.5666C33.9131 4.04926 33.1863 3.75862 32.4286 3.75862ZM35.2857 41H29.5714C28.8137 41 28.0869 40.7094 27.5511 40.192C27.0153 39.6747 26.7143 38.973 26.7143 38.2414V28.5862H29.5714V38.2414H35.2857V25.8276H38.1429V17.5517C38.1429 17.1859 37.9923 16.8351 37.7244 16.5764C37.4565 16.3177 37.0932 16.1724 36.7143 16.1724H27.5429L21 27.2069L14.4571 16.1724H5.28571C4.90683 16.1724 4.54347 16.3177 4.27556 16.5764C4.00765 16.8351 3.85714 17.1859 3.85714 17.5517V25.8276H6.71429V38.2414H12.4286V28.5862H15.2857V38.2414C15.2857 38.973 14.9847 39.6747 14.4489 40.192C13.9131 40.7094 13.1863 41 12.4286 41H6.71429C5.95652 41 5.2298 40.7094 4.69398 40.192C4.15816 39.6747 3.85714 38.973 3.85714 38.2414V28.5862C3.09938 28.5862 2.37266 28.2956 1.83684 27.7782C1.30102 27.2609 1 26.5592 1 25.8276V17.5517C1 16.4543 1.45153 15.4018 2.25526 14.6258C3.05898 13.8498 4.14907 13.4138 5.28571 13.4138H16.1143L21 21.6897L25.8857 13.4138H36.7143C37.8509 13.4138 38.941 13.8498 39.7447 14.6258C40.5485 15.4018 41 16.4543 41 17.5517V25.8276C41 26.5592 40.699 27.2609 40.1632 27.7782C39.6273 28.2956 38.9006 28.5862 38.1429 28.5862V38.2414C38.1429 38.973 37.8418 39.6747 37.306 40.192C36.7702 40.7094 36.0435 41 35.2857 41Z" fill="#31502C" stroke="#31502C"/>
</svg>
