<svg width="40" height="41" viewBox="0 0 40 41" fill="none" xmlns="http://www.w3.org/2000/svg">
<rect y="0.873291" width="40" height="40" rx="20" fill="white"/>
<path d="M22.6477 20.7531L22.9745 21.1003L22.616 20.788L21.9569 21.401L19.4942 23.6912L17.0449 21.4026L16.3856 20.7866L16.0255 21.1003L16.3523 20.7531L15.6195 20.0679L12.5386 17.1868L18.8566 22.3949L19.4921 22.9188L20.1281 22.3954L26.495 17.1554L23.3805 20.0679L22.6477 20.7531ZM33 27.6233V14.1233C33 12.3453 31.5867 10.8733 29.7954 10.8733H9.20459C7.41331 10.8733 6 12.3453 6 14.1233V27.6233C6 29.4013 7.41331 30.8733 9.20459 30.8733H29.7954C31.5867 30.8733 33 29.4013 33 27.6233Z" stroke="#31502C" stroke-width="2"/>
</svg>
