<svg width="81" height="80" viewBox="0 0 81 80" fill="none" xmlns="http://www.w3.org/2000/svg">
<rect x="0.5" width="80" height="80" rx="40" fill="#31502C"/>
<path d="M27.2611 30.4138C25.9897 30.4138 24.7468 30.0498 23.6896 29.3677C22.6324 28.6857 21.8085 27.7163 21.3219 26.5822C20.8354 25.448 20.708 24.2 20.9561 22.996C21.2041 21.792 21.8164 20.686 22.7155 19.818C23.6145 18.9499 24.76 18.3588 26.007 18.1193C27.254 17.8798 28.5466 18.0027 29.7213 18.4725C30.8959 18.9423 31.8999 19.7378 32.6063 20.7585C33.3127 21.7793 33.6897 22.9793 33.6897 24.2069C33.6897 25.8531 33.0124 27.4318 31.8068 28.5958C30.6012 29.7599 28.9661 30.4138 27.2611 30.4138ZM27.2611 21.1035C26.6254 21.1035 26.004 21.2855 25.4754 21.6265C24.9468 21.9675 24.5348 22.4522 24.2915 23.0193C24.0482 23.5863 23.9846 24.2103 24.1086 24.8124C24.2326 25.4144 24.5388 25.9673 24.9883 26.4014C25.4378 26.8354 26.0106 27.131 26.6341 27.2507C27.2576 27.3705 27.9039 27.309 28.4912 27.0741C29.0785 26.8392 29.5805 26.4414 29.9337 25.9311C30.2869 25.4207 30.4754 24.8207 30.4754 24.2069C30.4754 23.3838 30.1368 22.5944 29.534 22.0124C28.9312 21.4304 28.1136 21.1035 27.2611 21.1035ZM52.9754 30.4138C51.704 30.4138 50.4611 30.0498 49.4039 29.3677C48.3467 28.6857 47.5228 27.7163 47.0362 26.5822C46.5496 25.448 46.4223 24.2 46.6704 22.996C46.9184 21.792 47.5307 20.686 48.4297 19.818C49.3288 18.9499 50.4743 18.3588 51.7213 18.1193C52.9683 17.8798 54.2609 18.0027 55.4355 18.4725C56.6102 18.9423 57.6142 19.7378 58.3206 20.7585C59.027 21.7793 59.404 22.9793 59.404 24.2069C59.404 25.8531 58.7267 27.4318 57.5211 28.5958C56.3155 29.7599 54.6804 30.4138 52.9754 30.4138ZM52.9754 21.1035C52.3397 21.1035 51.7183 21.2855 51.1897 21.6265C50.6611 21.9675 50.2491 22.4522 50.0058 23.0193C49.7625 23.5863 49.6989 24.2103 49.8229 24.8124C49.9469 25.4144 50.2531 25.9673 50.7026 26.4014C51.1521 26.8354 51.7248 27.131 52.3484 27.2507C52.9719 27.3705 53.6181 27.309 54.2055 27.0741C54.7928 26.8392 55.2948 26.4414 55.648 25.9311C56.0012 25.4207 56.1897 24.8207 56.1897 24.2069C56.1897 23.3838 55.8511 22.5944 55.2483 22.0124C54.6455 21.4304 53.8279 21.1035 52.9754 21.1035ZM56.1897 63H49.7611C48.9087 63 48.0911 62.673 47.4883 62.091C46.8855 61.509 46.5469 60.7196 46.5469 59.8966V49.0345H49.7611V59.8966H56.1897V45.931H59.404V36.6207C59.404 36.2091 59.2347 35.8145 58.9333 35.5235C58.6319 35.2325 58.2231 35.069 57.7969 35.069H47.479L40.1183 47.4828L32.7576 35.069H22.4397C22.0135 35.069 21.6047 35.2325 21.3033 35.5235C21.0019 35.8145 20.8326 36.2091 20.8326 36.6207V45.931H24.0469V59.8966H30.4754V49.0345H33.6897V59.8966C33.6897 60.7196 33.3511 61.509 32.7483 62.091C32.1455 62.673 31.3279 63 30.4754 63H24.0469C23.1944 63 22.3768 62.673 21.774 62.091C21.1712 61.509 20.8326 60.7196 20.8326 59.8966V49.0345C19.9801 49.0345 19.1625 48.7075 18.5597 48.1255C17.9569 47.5435 17.6183 46.7541 17.6183 45.931V36.6207C17.6183 35.3861 18.1263 34.202 19.0304 33.329C19.9346 32.456 21.161 31.9655 22.4397 31.9655H34.6219L40.1183 41.2759L45.6147 31.9655H57.7969C59.0756 31.9655 60.3019 32.456 61.2061 33.329C62.1103 34.202 62.6183 35.3861 62.6183 36.6207V45.931C62.6183 46.7541 62.2796 47.5435 61.6768 48.1255C61.074 48.7075 60.2565 49.0345 59.404 49.0345V59.8966C59.404 60.7196 59.0653 61.509 58.4626 62.091C57.8598 62.673 57.0422 63 56.1897 63Z" fill="#F3CD00"/>
</svg>
