<svg width="81" height="80" viewBox="0 0 81 80" fill="none" xmlns="http://www.w3.org/2000/svg">
<rect x="0.5" width="80" height="80" rx="40" fill="#31502C"/>
<path d="M29.0396 18.001C28.9897 17.9997 28.9398 17.9999 28.89 18.0015C28.8035 18.0042 28.7475 18.0086 28.6944 18.0111C28.6407 18.0085 28.585 18.0042 28.4984 18.0015C28.3585 17.9967 28.2183 18.0032 28.0794 18.0209H28.0782L28.077 18.0212C24.8282 18.4403 22.4242 21.5392 22.4242 25.4648C22.4242 27.1672 22.8586 28.8686 23.6339 30.2385C22.5791 30.6578 21.694 31.3222 20.9969 32.1529C20.0384 33.2952 19.407 34.7251 18.9714 36.2943C18.1002 39.4327 18 43.1698 18 46.5394V47.4292H22.0318L23.0399 62.9986H28.2962V63H52.8336V62.9987H57.9597L58.968 47.4293H63V46.5395C63 43.17 62.8995 39.4329 62.0283 36.2944C61.5926 34.7253 60.9615 33.2952 60.0029 32.153C59.3058 31.3223 58.4209 30.6579 57.3659 30.2387C58.1412 28.869 58.5757 27.1675 58.5757 25.4651C58.5757 21.5395 56.1717 18.4406 52.9229 18.0214L52.9217 18.0213H52.9205C52.8904 18.0174 52.862 18.0149 52.8336 18.0122V18.0115H52.8273C52.7189 18.0017 52.61 17.9985 52.5013 18.0018C52.4155 18.0045 52.3609 18.0085 52.3074 18.0112C52.2546 18.0087 52.1993 18.0045 52.1135 18.0018C52.0047 17.9985 51.8958 18.0017 51.7874 18.0115H29.216C29.1573 18.0062 29.0985 18.0028 29.0396 18.0013V18.001ZM28.6944 19.7922C28.717 19.7924 28.7279 19.7931 28.7524 19.7931C28.8612 19.7931 28.9706 19.8003 29.0799 19.8119H51.92C52.0293 19.8003 52.1386 19.7931 52.2475 19.7931C52.273 19.7931 52.2843 19.7924 52.3076 19.7922C52.331 19.7924 52.3423 19.7931 52.3677 19.7931C52.8796 19.7931 53.4019 19.9251 53.89 20.1533L53.8969 20.1388C55.5596 20.9204 56.784 22.8423 56.784 25.4649C56.784 27.2419 56.1252 29.1376 55.2543 30.1793L54.2818 31.3425L55.7782 31.6219C57.0066 31.851 57.8945 32.42 58.6262 33.2919C59.3578 34.1637 59.9099 35.3589 60.3007 36.7671C61.014 39.3363 61.173 42.5721 61.1968 45.6497H57.2872L56.2794 61.2192H48.3354L48.3352 61.2177H32.6681V61.2192H24.7206L23.7125 45.6498H19.8032C19.8269 42.5722 19.9859 39.3363 20.6992 36.7672C21.09 35.359 21.6421 34.1638 22.3737 33.292C23.1054 32.4201 23.9933 31.8511 25.2217 31.622L26.7182 31.3425L25.7457 30.1793C24.8747 29.1377 24.2162 27.242 24.2162 25.4649C24.2162 22.8406 25.442 20.9183 27.1064 20.1375L27.1138 20.1533C27.6019 19.9251 28.1242 19.7931 28.6361 19.7931C28.6608 19.7931 28.6715 19.7924 28.6944 19.7922ZM32.0158 21.5914C32.3931 22.1065 32.6949 22.7187 32.8951 23.4143H48.1084C48.3088 22.7186 48.6104 22.1066 48.9877 21.5915L32.0158 21.5914ZM33.1677 25.1939C33.1706 25.2834 33.1725 25.3737 33.1725 25.4649C33.1725 25.9802 33.1156 26.5052 33.0156 27.0169H47.9878C47.8881 26.5052 47.8311 25.9802 47.8311 25.4649C47.8311 25.3737 47.8331 25.2834 47.8359 25.1939H33.1677ZM32.4662 28.7964C32.231 29.335 31.9507 29.8111 31.6428 30.1793L31.2752 30.6192H49.7283L49.3607 30.1793C49.0529 29.8111 48.7725 29.335 48.5374 28.7964H32.4663H32.4662ZM34.0557 32.3988C34.4076 32.6473 34.7239 32.9453 35.0148 33.2919C35.2481 33.5699 35.463 33.8812 35.6603 34.2215H45.3431C45.5407 33.8812 45.7555 33.5699 45.9888 33.2919C46.2797 32.9453 46.5958 32.6473 46.9477 32.3988H34.0557ZM36.4534 36.0011C36.5377 36.2487 36.6164 36.5041 36.6893 36.7671C36.784 37.108 36.8683 37.4612 36.9443 37.8237H44.0591C44.1329 37.4689 44.218 37.1165 44.3142 36.7671C44.3856 36.5096 44.4642 36.2542 44.5501 36.0011H36.4534ZM37.2421 39.6034C37.3197 40.1975 37.3808 40.807 37.4283 41.426H43.575C43.6225 40.8071 43.6837 40.1975 43.7615 39.6033L37.2421 39.6034ZM37.5303 43.2057C37.5546 43.8135 37.568 44.4223 37.5766 45.0284H43.4267C43.4354 44.4222 43.4488 43.8135 43.4729 43.2056H37.5301L37.5303 43.2057ZM33.6011 46.8082L33.4829 48.631H47.5205L47.4026 46.8083L33.6011 46.8082ZM33.3677 50.4107L33.2498 52.2335H47.7538L47.6359 50.4108H33.3677L33.3677 50.4107ZM33.1347 54.0132L33.0166 55.8357H47.9869L47.8689 54.0132H33.1347ZM32.9014 57.6154L32.7835 59.4381H48.2202L48.1022 57.6155L32.9014 57.6154Z" fill="#F3CD00"/>
</svg>
