<svg width="60" height="60" viewBox="0 0 60 60" fill="none" xmlns="http://www.w3.org/2000/svg">
<rect width="60" height="60" rx="15" fill="#31502C"/>
<path d="M20.0709 22.8103C19.1173 22.8103 18.1851 22.5373 17.3922 22.0258C16.5994 21.5143 15.9814 20.7873 15.6165 19.9366C15.2515 19.086 15.1561 18.15 15.3421 17.247C15.5281 16.344 15.9873 15.5145 16.6616 14.8635C17.3359 14.2124 18.195 13.7691 19.1303 13.5894C20.0655 13.4098 21.035 13.502 21.916 13.8544C22.797 14.2067 23.55 14.8034 24.0798 15.5689C24.6095 16.3344 24.8923 17.2345 24.8923 18.1552C24.8923 19.3898 24.3843 20.5739 23.4802 21.4469C22.576 22.3199 21.3496 22.8103 20.0709 22.8103ZM20.0709 15.8276C19.5941 15.8276 19.128 15.9641 18.7316 16.2199C18.3351 16.4756 18.0261 16.8391 17.8437 17.2644C17.6612 17.6898 17.6135 18.1578 17.7065 18.6093C17.7995 19.0608 18.0291 19.4755 18.3663 19.801C18.7034 20.1265 19.1329 20.3482 19.6006 20.438C20.0682 20.5278 20.5529 20.4818 20.9934 20.3056C21.4339 20.1294 21.8104 19.8311 22.0753 19.4483C22.3402 19.0655 22.4816 18.6155 22.4816 18.1552C22.4816 17.5379 22.2276 16.9458 21.7755 16.5093C21.3234 16.0728 20.7102 15.8276 20.0709 15.8276ZM39.3566 22.8103C38.403 22.8103 37.4708 22.5373 36.678 22.0258C35.8851 21.5143 35.2671 20.7873 34.9022 19.9366C34.5373 19.086 34.4418 18.15 34.6278 17.247C34.8139 16.344 35.2731 15.5145 35.9473 14.8635C36.6216 14.2124 37.4807 13.7691 38.416 13.5894C39.3513 13.4098 40.3207 13.502 41.2017 13.8544C42.0827 14.2067 42.8357 14.8034 43.3655 15.5689C43.8953 16.3344 44.178 17.2345 44.178 18.1552C44.178 19.3898 43.6701 20.5739 42.7659 21.4469C41.8617 22.3199 40.6353 22.8103 39.3566 22.8103ZM39.3566 15.8276C38.8798 15.8276 38.4137 15.9641 38.0173 16.2199C37.6208 16.4756 37.3119 16.8391 37.1294 17.2644C36.9469 17.6898 36.8992 18.1578 36.9922 18.6093C37.0852 19.0608 37.3148 19.4755 37.652 19.801C37.9891 20.1265 38.4187 20.3482 38.8863 20.438C39.3539 20.5278 39.8386 20.4818 40.2791 20.3056C40.7196 20.1294 41.0961 19.8311 41.361 19.4483C41.6259 19.0655 41.7673 18.6155 41.7673 18.1552C41.7673 17.5379 41.5133 16.9458 41.0612 16.5093C40.6091 16.0728 39.996 15.8276 39.3566 15.8276ZM41.7673 47.25H36.9459C36.3065 47.25 35.6934 47.0048 35.2413 46.5683C34.7892 46.1318 34.5352 45.5397 34.5352 44.9224V36.7759H36.9459V44.9224H41.7673V34.4483H44.178V27.4655C44.178 27.1569 44.051 26.8608 43.825 26.6426C43.5989 26.4243 43.2924 26.3017 42.9727 26.3017H35.2343L29.7137 35.6121L24.1932 26.3017H16.4548C16.1351 26.3017 15.8285 26.4243 15.6025 26.6426C15.3765 26.8608 15.2495 27.1569 15.2495 27.4655V34.4483H17.6602V44.9224H22.4816V36.7759H24.8923V44.9224C24.8923 45.5397 24.6383 46.1318 24.1862 46.5683C23.7341 47.0048 23.121 47.25 22.4816 47.25H17.6602C17.0208 47.25 16.4076 47.0048 15.9555 46.5683C15.5034 46.1318 15.2495 45.5397 15.2495 44.9224V36.7759C14.6101 36.7759 13.9969 36.5306 13.5448 36.0941C13.0927 35.6576 12.8387 35.0656 12.8387 34.4483V27.4655C12.8387 26.5395 13.2197 25.6515 13.8979 24.9967C14.576 24.342 15.4958 23.9741 16.4548 23.9741H25.5914L29.7137 30.9569L33.8361 23.9741H42.9727C43.9317 23.9741 44.8515 24.342 45.5296 24.9967C46.2078 25.6515 46.5887 26.5395 46.5887 27.4655V34.4483C46.5887 35.0656 46.3348 35.6576 45.8827 36.0941C45.4306 36.5306 44.8174 36.7759 44.178 36.7759V44.9224C44.178 45.5397 43.924 46.1318 43.472 46.5683C43.0199 47.0048 42.4067 47.25 41.7673 47.25Z" fill="#F3CD00"/>
</svg>
