<svg width="80" height="80" viewBox="0 0 80 80" fill="none" xmlns="http://www.w3.org/2000/svg">
<rect width="80" height="80" rx="40" fill="#31502C"/>
<path d="M40.3 10.0014H40C38.6868 10.0014 37.3864 10.26 36.1732 10.7625C34.9599 11.265 33.8575 12.0016 32.9289 12.9301C31.0536 14.8053 30 17.3487 30 20.0007C30 22.6527 31.0536 25.196 32.9289 27.0713C33.8575 27.9998 34.9599 28.7363 36.1732 29.2388C37.3864 29.7414 38.6868 30 40 30C43 30 44.7 29.0001 46.5 27.5002C41 29.0001 36 25.0003 36 20.0007C36 15.001 41 11.0013 46.5 12.5012C45.6871 11.6899 44.7193 11.0505 43.6541 10.6211C42.589 10.1916 41.4483 9.98084 40.3 10.0014ZM44.8 14.2011L43.3 17.7008L39.6 18.0008L42.5 20.5006L41.6 24.0004L44.8 22.0005L48 24.0004L47 20.5006L50 18.0008L46.3 17.7008L44.8 14.2011Z" fill="#F3CD00"/>
<path d="M61.9107 30H64.5893V36H69.5V39H64.5893V50H61.9107V39H57V36H61.9107V30Z" fill="#F3CD00"/>
<path d="M19 30V31C17.27 31.2 15.69 31.9 14.4 32.94L13.64 32.18L12.22 33.6L13 34.35C11.9041 35.6779 11.2103 37.2912 11 39H10V41H11C11.21 42.68 11.9 44.26 13 45.56L12.22 46.32L13.64 47.74L14.39 47C15.714 48.0771 17.3089 48.769 19 49V50H21V49C22.688 48.7687 24.2796 48.0767 25.6 47L26.36 47.74L27.78 46.32L27 45.57C28.1 44.27 28.79 42.68 29 41H30V39H29C28.7901 37.2941 28.0961 35.684 27 34.36L27.78 33.6L26.36 32.18L25.61 32.94C24.2875 31.8708 22.6891 31.1981 21 31V30H19ZM19 33V36L18 36.5L15.81 34.35C16.72 33.67 17.81 33.17 19 33ZM21 33C22.16 33.18 23.26 33.64 24.2 34.35L22 36.5L21 36V33ZM14.4 35.76L16.5 38L16 39H13C13.16 37.84 13.7 36.7 14.39 35.75L14.4 35.76ZM25.6 35.76C26.33 36.71 26.81 37.82 27 39H24L23.5 38L25.61 35.76H25.6ZM20 38C21.12 38 22 38.88 22 40C22 41.12 21.12 42 20 42C18.88 42 18 41.12 18 40C18 38.88 18.88 38 20 38ZM13 41H16L16.57 42L14.39 44.15C13.67 43.24 13.19 42.16 13 41ZM24 41H27C26.8077 42.1529 26.3299 43.2392 25.61 44.16L23.5 42L24 41ZM18 43.5L19 44V47C17.8298 46.8007 16.7291 46.3088 15.8 45.57L18 43.5ZM22 43.5L24.19 45.57C23.28 46.25 22.19 46.83 21 47V44L22 43.5Z" fill="#F3CD00"/>
<path d="M42.8148 50L41.3924 51.5L42.8148 53L44.2372 51.5L42.8148 50ZM39.0217 51C38.0735 57 44.7114 58 47.5562 54L45.6597 52.5C44.7114 54 40.9183 56 39.0217 51ZM37.1252 55C35.2286 55 32.8579 56.5 32.8579 56.5L34.2803 59C35.2286 58 37.1252 57.5 38.0735 58C39.97 59 37.1252 61 35.2286 60V63.5C38.0735 62 39.97 64 39.0217 65.5C36.1769 70 31.4355 64 31.4355 61C29.539 67 34.2803 70 37.1252 70C39.97 70 41.8666 68 40.4441 63H41.8666C40.4441 67.5 45.6597 72 48.5045 66C49.4528 64 49.4528 57.5 44.7114 57.5C40.9183 57.5 41.8666 63 38.5476 61.5C41.8666 58 39.97 55 37.1252 55ZM46.6079 60C49.4528 63 42.8148 69 42.8148 63C42.8148 61 44.7114 58.5 46.6079 60Z" fill="#F3CD00"/>
</svg>
