<svg width="60" height="60" viewBox="0 0 60 60" fill="none" xmlns="http://www.w3.org/2000/svg">
<rect width="60" height="60" rx="15" fill="#31502C"/>
<path d="M30.24 7.00103H30C28.9494 7.00103 27.9091 7.19501 26.9385 7.57189C25.9679 7.94877 25.086 8.50118 24.3431 9.19757C22.8429 10.604 22 12.5115 22 14.5005C22 16.4895 22.8429 18.397 24.3431 19.8035C25.086 20.4998 25.9679 21.0523 26.9385 21.4291C27.9091 21.806 28.9494 22 30 22C32.4 22 33.76 21.2501 35.2 20.1251C30.8 21.2501 26.8 18.2503 26.8 14.5005C26.8 10.7508 30.8 7.75097 35.2 8.8759C34.5497 8.26745 33.7754 7.78789 32.9233 7.46579C32.0712 7.14369 31.1586 6.98563 30.24 7.00103ZM33.84 10.1508L32.64 12.7756L29.68 13.0006L32 14.8755L31.28 17.5003L33.84 16.0004L36.4 17.5003L35.6 14.8755L38 13.0006L35.04 12.7756L33.84 10.1508Z" fill="#F3CD00"/>
<path d="M46.9286 22H49.0714V26.8H53V29.2H49.0714V38H46.9286V29.2H43V26.8H46.9286V22Z" fill="#F3CD00"/>
<path d="M13.2 22V22.8C11.816 22.96 10.552 23.52 9.52 24.352L8.912 23.744L7.776 24.88L8.4 25.48C7.5233 26.5423 6.9682 27.8329 6.8 29.2H6V30.8H6.8C6.968 32.144 7.52 33.408 8.4 34.448L7.776 35.056L8.912 36.192L9.512 35.6C10.5712 36.4616 11.8471 37.0152 13.2 37.2V38H14.8V37.2C16.1504 37.015 17.4237 36.4614 18.48 35.6L19.088 36.192L20.224 35.056L19.6 34.456C20.48 33.416 21.032 32.144 21.2 30.8H22V29.2H21.2C21.0321 27.8353 20.4768 26.5472 19.6 25.488L20.224 24.88L19.088 23.744L18.488 24.352C17.43 23.4966 16.1513 22.9585 14.8 22.8V22H13.2ZM13.2 24.4V26.8L12.4 27.2L10.648 25.48C11.376 24.936 12.248 24.536 13.2 24.4ZM14.8 24.4C15.728 24.544 16.608 24.912 17.36 25.48L15.6 27.2L14.8 26.8V24.4ZM9.52 26.608L11.2 28.4L10.8 29.2H8.4C8.528 28.272 8.96 27.36 9.512 26.6L9.52 26.608ZM18.48 26.608C19.064 27.368 19.448 28.256 19.6 29.2H17.2L16.8 28.4L18.488 26.608H18.48ZM14 28.4C14.896 28.4 15.6 29.104 15.6 30C15.6 30.896 14.896 31.6 14 31.6C13.104 31.6 12.4 30.896 12.4 30C12.4 29.104 13.104 28.4 14 28.4ZM8.4 30.8H10.8L11.256 31.6L9.512 33.32C8.936 32.592 8.552 31.728 8.4 30.8ZM17.2 30.8H19.6C19.4462 31.7223 19.0639 32.5914 18.488 33.328L16.8 31.6L17.2 30.8ZM12.4 32.8L13.2 33.2V35.6C12.2639 35.4406 11.3832 35.0471 10.64 34.456L12.4 32.8ZM15.6 32.8L17.352 34.456C16.624 35 15.752 35.464 14.8 35.6V33.2L15.6 32.8Z" fill="#F3CD00"/>
<path d="M34.2501 39.0049C35.3814 39.6581 36.3224 40.5953 36.98 41.7239C37.6377 42.8525 37.9892 44.1332 37.9998 45.4394C38.0103 46.7456 37.6795 48.0319 37.0402 49.1709C36.4008 50.31 35.4751 51.2623 34.3546 51.9337C33.2341 52.605 31.9576 52.972 30.6517 52.9985C29.3457 53.0249 28.0555 52.7098 26.9087 52.0844C25.762 51.4589 24.7984 50.5448 24.1135 49.4326C23.4286 48.3203 23.0461 47.0485 23.0038 45.7429L23 45.4999L23.0038 45.2569C23.0458 43.9617 23.4227 42.6994 24.0977 41.5932C24.7728 40.4869 25.723 39.5745 26.8557 38.9448C27.9884 38.3152 29.2649 37.9897 30.5608 38.0002C31.8568 38.0108 33.1278 38.3569 34.2501 39.0049ZM27.5001 40.3039C26.3563 40.9644 25.4624 41.9837 24.9569 43.204C24.4515 44.4242 24.3629 45.7771 24.7047 47.0529C25.0466 48.3286 25.7998 49.4559 26.8476 50.26C27.8955 51.064 29.1793 51.4999 30.5001 51.4999L30.6501 51.4962C31.4188 51.4577 32.1434 51.1252 32.6739 50.5675C33.2043 50.0099 33.5002 49.2696 33.5002 48.4999C33.5002 47.7302 33.2043 46.99 32.6739 46.4323C32.1434 45.8746 31.4188 45.5421 30.6501 45.5037L30.5001 45.4999C29.7174 45.4999 28.9657 45.1941 28.4054 44.6476C27.8451 44.1012 27.5205 43.3574 27.5009 42.5749C27.4814 41.7925 27.7684 41.0334 28.3006 40.4596C28.8329 39.8858 29.5684 39.5428 30.3501 39.5037L30.5001 39.4999C29.4468 39.5 28.4122 39.7773 27.5001 40.3039ZM30.5001 41.3749C30.2017 41.3749 29.9156 41.4934 29.7046 41.7044C29.4936 41.9154 29.3751 42.2016 29.3751 42.4999C29.3751 42.7983 29.4936 43.0844 29.7046 43.2954C29.9156 43.5064 30.2017 43.6249 30.5001 43.6249C30.7985 43.6249 31.0846 43.5064 31.2956 43.2954C31.5066 43.0844 31.6251 42.7983 31.6251 42.4999C31.6251 42.2016 31.5066 41.9154 31.2956 41.7044C31.0846 41.4934 30.7985 41.3749 30.5001 41.3749Z" fill="#F3CD00"/>
<path d="M30.5001 47.3749C30.7985 47.3749 31.0847 47.4934 31.2956 47.7044C31.5066 47.9154 31.6251 48.2016 31.6251 48.4999C31.6251 48.7983 31.5066 49.0844 31.2956 49.2954C31.0847 49.5064 30.7985 49.6249 30.5001 49.6249C30.2018 49.6249 29.9156 49.5064 29.7046 49.2954C29.4936 49.0844 29.3751 48.7983 29.3751 48.4999C29.3751 48.2016 29.4936 47.9154 29.7046 47.7044C29.9156 47.4934 30.2018 47.3749 30.5001 47.3749Z" fill="#F3CD00"/>
</svg>
