<svg width="61" height="60" viewBox="0 0 61 60" fill="none" xmlns="http://www.w3.org/2000/svg">
<rect x="0.5" width="60" height="60" rx="15" fill="#31502C"/>
<path d="M13.6708 21.4289H18.5055C19.7323 21.4289 20.9085 20.8118 21.7758 19.7147C23.0128 18.1479 24.8454 17.5993 26.5076 18.3004L28.8583 19.293M13.6708 36.8007H16.4045C18.362 36.8007 19.3408 36.8007 20.2655 37.0647L20.4005 37.1058C21.3202 37.3887 22.1336 37.9218 23.762 38.9881C26.948 41.0743 28.541 42.1166 30.2758 41.9897L30.5222 41.9657C32.2502 41.7566 33.6035 40.4263 36.3103 37.7658L38.9833 35.143" stroke="#F3CD00" stroke-width="4" stroke-linecap="round" stroke-linejoin="round"/>
<path d="M47.4208 21.83H43.1733C41.3745 21.83 40.1055 20.8358 38.8145 19.5141C38.0158 18.6737 36.9393 18.1633 35.7922 18.081C34.5384 18.0038 33.0855 17.8924 31.8688 18.2335C30.5137 18.6107 29.6194 19.6478 28.6727 20.7295L26.2308 23.5237C25.2352 24.662 25.2352 26.5117 26.2308 27.6516C27.0915 28.6356 28.4398 28.7882 29.4523 28.0151C30.1813 27.4596 31.0082 26.5631 31.8671 26.2802C32.834 25.9631 33.4331 26.6779 33.9798 27.4288L37.8948 32.8013C39.3495 34.7966 40.0751 35.7926 41.0674 36.3258C42.063 36.8572 43.197 36.8572 45.4667 36.8572H47.4208" stroke="#F3CD00" stroke-width="4" stroke-linecap="round" stroke-linejoin="round"/>
</svg>
