<svg width="81" height="80" viewBox="0 0 81 80" fill="none" xmlns="http://www.w3.org/2000/svg">
<rect x="0.5" width="80" height="80" rx="40" fill="#31502C"/>
<path d="M18.061 28.5719H24.5073C26.143 28.5719 27.7113 27.749 28.8678 26.2862C30.517 24.1971 32.9605 23.4657 35.1768 24.4005L38.311 25.7239M18.061 49.0675H21.706C24.316 49.0675 25.621 49.0675 26.854 49.4195L27.034 49.4744C28.2603 49.8515 29.3448 50.5623 31.516 51.984C35.764 54.7657 37.888 56.1554 40.201 55.9862L40.5295 55.9542C42.8335 55.6754 44.638 53.9017 48.247 50.3543L51.811 46.8573" stroke="#F3CD00" stroke-width="4" stroke-linecap="round" stroke-linejoin="round"/>
<path d="M63.0611 29.1067H57.3978C54.9993 29.1067 53.3073 27.781 51.5861 26.0188C50.5211 24.8983 49.0857 24.2177 47.5563 24.1079C45.8846 24.0051 43.9473 23.8565 42.3251 24.3114C40.5183 24.8142 39.3258 26.197 38.0636 27.6393L34.8078 31.365C33.4803 32.8826 33.4803 35.3489 34.8078 36.8688C35.9553 38.1808 37.7531 38.3842 39.1031 37.3534C40.0751 36.6129 41.1776 35.4174 42.3228 35.0403C43.6121 34.6175 44.4108 35.5706 45.1398 36.5717L50.3598 43.735C52.2993 46.3955 53.2668 47.7235 54.5898 48.4343C55.9173 49.1429 57.4293 49.1429 60.4556 49.1429H63.0611" stroke="#F3CD00" stroke-width="4" stroke-linecap="round" stroke-linejoin="round"/>
</svg>
